%FSLAX34Y34*%
%MOMM*%
%LNSILK_TOP*%
G71*
G01*
%ADD10C, 0.10*%
%ADD11C, 0.17*%
%ADD12C, 0.00*%
%ADD13C, 0.12*%
%ADD14C, 0.44*%
%ADD15C, 0.27*%
%ADD16C, 0.30*%
%ADD17C, 0.12*%
%ADD18C, 0.21*%
%ADD19C, 0.15*%
%ADD20C, 0.24*%
%ADD21C, 0.48*%
%ADD22C, 0.16*%
%ADD23C, 0.40*%
%ADD24C, 0.20*%
%ADD25C, 0.25*%
%ADD26C, 0.32*%
%LPD*%
G54D10*
X238125Y939850D02*
X244425Y946150D01*
X257225Y946150D01*
X263525Y939850D01*
X263525Y927050D01*
X257225Y920750D01*
X244425Y920750D01*
X238125Y927050D01*
X238125Y939850D01*
G54D10*
X111125Y939850D02*
X117425Y946150D01*
X130225Y946150D01*
X136525Y939850D01*
X136525Y927050D01*
X130225Y920750D01*
X117425Y920750D01*
X111125Y927050D01*
X111125Y939850D01*
G54D10*
X136525Y939850D02*
X142825Y946150D01*
X155625Y946150D01*
X161925Y939850D01*
X161925Y927050D01*
X155625Y920750D01*
X142825Y920750D01*
X136525Y927050D01*
X136525Y939850D01*
G54D10*
X161925Y939850D02*
X168225Y946150D01*
X181025Y946150D01*
X187325Y939850D01*
X187325Y927050D01*
X181025Y920750D01*
X168225Y920750D01*
X161925Y927050D01*
X161925Y939850D01*
G54D10*
X187325Y939850D02*
X193625Y946150D01*
X206425Y946150D01*
X212725Y939850D01*
X212725Y927050D01*
X206425Y920750D01*
X193625Y920750D01*
X187325Y927050D01*
X187325Y939850D01*
G54D10*
X212725Y939850D02*
X219025Y946150D01*
X231825Y946150D01*
X238125Y939850D01*
X238125Y927050D01*
X231825Y920750D01*
X219025Y920750D01*
X212725Y927050D01*
X212725Y939850D01*
G54D10*
X60325Y939850D02*
X66625Y946150D01*
X79425Y946150D01*
X85725Y939850D01*
X85725Y927050D01*
X79425Y920750D01*
X66625Y920750D01*
X60325Y927050D01*
X60325Y939850D01*
G54D10*
X238125Y787450D02*
X244425Y793750D01*
X257225Y793750D01*
X263525Y787450D01*
X263525Y774650D01*
X257225Y768350D01*
X244425Y768350D01*
X238125Y774650D01*
X238125Y787450D01*
G54D10*
X111125Y787450D02*
X117425Y793750D01*
X130225Y793750D01*
X136525Y787450D01*
X136525Y774650D01*
X130225Y768350D01*
X117425Y768350D01*
X111125Y774650D01*
X111125Y787450D01*
G54D10*
X161925Y787450D02*
X168225Y793750D01*
X181025Y793750D01*
X187325Y787450D01*
X187325Y774650D01*
X181025Y768350D01*
X168225Y768350D01*
X161925Y774650D01*
X161925Y787450D01*
G54D10*
X187325Y787450D02*
X193625Y793750D01*
X206425Y793750D01*
X212725Y787450D01*
X212725Y774650D01*
X206425Y768350D01*
X193625Y768350D01*
X187325Y774650D01*
X187325Y787450D01*
G54D10*
X212725Y787450D02*
X219025Y793750D01*
X231825Y793750D01*
X238125Y787450D01*
X238125Y774650D01*
X231825Y768350D01*
X219025Y768350D01*
X212725Y774650D01*
X212725Y787450D01*
G54D10*
X60325Y787450D02*
X66625Y793750D01*
X79425Y793750D01*
X85725Y787450D01*
X85725Y774650D01*
X79425Y768350D01*
X66625Y768350D01*
X60325Y774650D01*
X60325Y787450D01*
G54D10*
X85725Y787450D02*
X92025Y793750D01*
X104825Y793750D01*
X111125Y787450D01*
X111125Y774650D01*
X104825Y768350D01*
X92025Y768350D01*
X85725Y774650D01*
X85725Y787450D01*
G54D11*
X280417Y797221D02*
X290195Y800888D01*
X280417Y804554D01*
G54D11*
X288361Y813843D02*
X289584Y813110D01*
X290195Y811643D01*
X290195Y810176D01*
X289584Y808710D01*
X288361Y807976D01*
X282250Y807976D01*
X281028Y808710D01*
X280417Y810176D01*
X280417Y811643D01*
X281028Y813110D01*
X282250Y813843D01*
G54D11*
X288361Y823132D02*
X289584Y822398D01*
X290195Y820932D01*
X290195Y819465D01*
X289584Y817998D01*
X288361Y817265D01*
X282250Y817265D01*
X281028Y817998D01*
X280417Y819465D01*
X280417Y820932D01*
X281028Y822398D01*
X282250Y823132D01*
G54D11*
X193234Y797002D02*
X196901Y806780D01*
X200567Y797002D01*
G54D11*
X194701Y800669D02*
X199101Y800669D01*
G54D11*
X203989Y803113D02*
X207656Y806780D01*
X207656Y797002D01*
G54D11*
X164660Y797002D02*
X168326Y806780D01*
X171993Y797002D01*
G54D11*
X166126Y800669D02*
X170526Y800669D01*
G54D11*
X181281Y804946D02*
X181281Y798835D01*
X180548Y797613D01*
X179081Y797002D01*
X177615Y797002D01*
X176148Y797613D01*
X175415Y798835D01*
X175415Y804946D01*
X176148Y806169D01*
X177615Y806780D01*
X179081Y806780D01*
X180548Y806169D01*
X181281Y804946D01*
G54D11*
X115443Y803113D02*
X119110Y806780D01*
X119110Y797002D01*
G54D11*
X128399Y797002D02*
X122532Y797002D01*
X122532Y797613D01*
X123266Y798835D01*
X127666Y802502D01*
X128399Y803724D01*
X128399Y804946D01*
X127666Y806169D01*
X126199Y806780D01*
X124732Y806780D01*
X123266Y806169D01*
X122532Y804946D01*
G54D11*
X91630Y803126D02*
X95297Y806793D01*
X95297Y797015D01*
G54D11*
X98719Y803126D02*
X102386Y806793D01*
X102386Y797015D01*
G54D11*
X66231Y803113D02*
X69897Y806780D01*
X69897Y797002D01*
G54D11*
X79186Y804946D02*
X79186Y798835D01*
X78453Y797613D01*
X76986Y797002D01*
X75520Y797002D01*
X74053Y797613D01*
X73320Y798835D01*
X73320Y804946D01*
X74053Y806169D01*
X75520Y806780D01*
X76986Y806780D01*
X78453Y806169D01*
X79186Y804946D01*
G54D11*
X69096Y908978D02*
X69829Y907756D01*
X71296Y907145D01*
X72762Y907145D01*
X74229Y907756D01*
X74962Y908978D01*
X74962Y912034D01*
X74962Y912645D01*
X72762Y911423D01*
X71296Y911423D01*
X69829Y912034D01*
X69096Y913256D01*
X69096Y915089D01*
X69829Y916312D01*
X71296Y916923D01*
X72762Y916923D01*
X74229Y916312D01*
X74962Y915089D01*
X74962Y912034D01*
G54D11*
X121423Y916885D02*
X127289Y916885D01*
X126556Y915663D01*
X125089Y913829D01*
X123623Y911385D01*
X122889Y909552D01*
X122889Y907107D01*
G54D11*
X152750Y915088D02*
X152017Y916311D01*
X150550Y916922D01*
X149084Y916922D01*
X147617Y916311D01*
X146884Y915088D01*
X146884Y912033D01*
X146884Y911422D01*
X149084Y912644D01*
X150550Y912644D01*
X152017Y912033D01*
X152750Y910811D01*
X152750Y908977D01*
X152017Y907755D01*
X150550Y907144D01*
X149084Y907144D01*
X147617Y907755D01*
X146884Y908977D01*
X146884Y912033D01*
G54D11*
X176563Y916922D02*
X170696Y916922D01*
X170696Y912644D01*
X171430Y912644D01*
X172896Y913255D01*
X174363Y913255D01*
X175830Y912644D01*
X176563Y911422D01*
X176563Y908977D01*
X175830Y907755D01*
X174363Y907144D01*
X172896Y907144D01*
X171430Y907755D01*
X170696Y908977D01*
G54D11*
X202067Y907161D02*
X202067Y916939D01*
X197667Y910828D01*
X197667Y909606D01*
X203533Y909606D01*
G54D11*
X223100Y915088D02*
X223833Y916311D01*
X225300Y916922D01*
X226767Y916922D01*
X228233Y916311D01*
X228967Y915088D01*
X228967Y913866D01*
X228233Y912644D01*
X226767Y912033D01*
X228233Y911422D01*
X228967Y910200D01*
X228967Y908977D01*
X228233Y907755D01*
X226767Y907144D01*
X225300Y907144D01*
X223833Y907755D01*
X223100Y908977D01*
G54D11*
X254350Y907144D02*
X248484Y907144D01*
X248484Y907755D01*
X249217Y908977D01*
X253617Y912644D01*
X254350Y913866D01*
X254350Y915088D01*
X253617Y916311D01*
X252150Y916922D01*
X250684Y916922D01*
X249217Y916311D01*
X248484Y915088D01*
G54D11*
X275781Y896028D02*
X275781Y898961D01*
X278836Y898961D01*
X280058Y898228D01*
X280670Y896761D01*
X280670Y895294D01*
X280058Y893828D01*
X278836Y893094D01*
X272725Y893094D01*
X271503Y893828D01*
X270892Y895294D01*
X270892Y896761D01*
X271503Y898228D01*
X272725Y898961D01*
G54D11*
X280670Y902383D02*
X270892Y902383D01*
X280670Y908250D01*
X270892Y908250D01*
G54D11*
X280670Y911672D02*
X270892Y911672D01*
X270892Y915339D01*
X271503Y916806D01*
X272725Y917539D01*
X278836Y917539D01*
X280058Y916806D01*
X280670Y915339D01*
X280670Y911672D01*
G54D12*
X58369Y766296D02*
X58369Y947270D01*
X391744Y947271D01*
X391744Y766296D01*
X58369Y766296D01*
G54D10*
X263525Y939850D02*
X269825Y946150D01*
X282625Y946150D01*
X288925Y939850D01*
X288925Y927050D01*
X282625Y920750D01*
X269825Y920750D01*
X263525Y927050D01*
X263525Y939850D01*
G54D10*
X136525Y787450D02*
X142825Y793750D01*
X155625Y793750D01*
X161925Y787450D01*
X161925Y774650D01*
X155625Y768350D01*
X142825Y768350D01*
X136525Y774650D01*
X136525Y787450D01*
G54D10*
X263525Y787450D02*
X269825Y793750D01*
X282625Y793750D01*
X288925Y787450D01*
X288925Y774650D01*
X282625Y768350D01*
X269825Y768350D01*
X263525Y774650D01*
X263525Y787450D01*
G54D10*
X85725Y939850D02*
X92025Y946150D01*
X104825Y946150D01*
X111125Y939850D01*
X111125Y927050D01*
X104825Y920750D01*
X92025Y920750D01*
X85725Y927050D01*
X85725Y939850D01*
G54D10*
X288925Y939850D02*
X295225Y946150D01*
X308025Y946150D01*
X314325Y939850D01*
X314325Y927050D01*
X308025Y920750D01*
X295225Y920750D01*
X288925Y927050D01*
X288925Y939850D01*
G54D10*
X314325Y939850D02*
X320625Y946150D01*
X333425Y946150D01*
X339725Y939850D01*
X339725Y927050D01*
X333425Y920750D01*
X320625Y920750D01*
X314325Y927050D01*
X314325Y939850D01*
G54D10*
X339725Y939850D02*
X346025Y946150D01*
X358825Y946150D01*
X365125Y939850D01*
X365125Y927050D01*
X358825Y920750D01*
X346025Y920750D01*
X339725Y927050D01*
X339725Y939850D01*
G54D10*
X288925Y787450D02*
X295225Y793750D01*
X308025Y793750D01*
X314325Y787450D01*
X314325Y774650D01*
X308025Y768350D01*
X295225Y768350D01*
X288925Y774650D01*
X288925Y787450D01*
G54D10*
X314325Y787450D02*
X320625Y793750D01*
X333425Y793750D01*
X339725Y787450D01*
X339725Y774650D01*
X333425Y768350D01*
X320625Y768350D01*
X314325Y774650D01*
X314325Y787450D01*
G54D10*
X339725Y787450D02*
X346025Y793750D01*
X358825Y793750D01*
X365125Y787450D01*
X365125Y774650D01*
X358825Y768350D01*
X346025Y768350D01*
X339725Y774650D01*
X339725Y787450D01*
G54D11*
X98162Y912033D02*
X96696Y912033D01*
X95229Y912645D01*
X94496Y913867D01*
X94496Y915089D01*
X95229Y916311D01*
X96696Y916922D01*
X98162Y916922D01*
X99629Y916311D01*
X100362Y915089D01*
X100362Y913867D01*
X99629Y912645D01*
X98162Y912033D01*
X99629Y911422D01*
X100362Y910200D01*
X100362Y908978D01*
X99629Y907756D01*
X98162Y907145D01*
X96696Y907145D01*
X95229Y907756D01*
X94496Y908978D01*
X94496Y910200D01*
X95229Y911422D01*
X96696Y912033D01*
G54D11*
X140843Y803112D02*
X144510Y806779D01*
X144510Y797001D01*
G54D11*
X147932Y804946D02*
X148666Y806168D01*
X150132Y806779D01*
X151599Y806779D01*
X153066Y806168D01*
X153799Y804946D01*
X153799Y803724D01*
X153066Y802501D01*
X151599Y801890D01*
X153066Y801279D01*
X153799Y800057D01*
X153799Y798835D01*
X153066Y797612D01*
X151599Y797001D01*
X150132Y797001D01*
X148666Y797612D01*
X147932Y798835D01*
G54D13*
X356870Y896046D02*
X347092Y896046D01*
G54D13*
X347092Y893112D02*
X347092Y898979D01*
G54D13*
X351370Y901668D02*
X356870Y907535D01*
G54D13*
X356870Y901668D02*
X351370Y907535D01*
G54D13*
X356870Y910224D02*
X347092Y910224D01*
X347092Y913891D01*
X347703Y915358D01*
X348926Y916091D01*
X355037Y916091D01*
X356259Y915358D01*
X356870Y913891D01*
X356870Y910224D01*
G54D11*
X326575Y896028D02*
X327797Y898228D01*
X329019Y898962D01*
X331464Y898962D01*
G54D11*
X331464Y893095D02*
X321686Y893095D01*
X321686Y896762D01*
X322297Y898228D01*
X323519Y898962D01*
X324741Y898962D01*
X325964Y898228D01*
X326575Y896762D01*
X326575Y893095D01*
G54D11*
X325964Y902384D02*
X331464Y908250D01*
G54D11*
X331464Y902384D02*
X325964Y908250D01*
G54D11*
X325352Y911673D02*
X321686Y915340D01*
X331464Y915340D01*
G54D11*
X301181Y896011D02*
X302403Y898211D01*
X303625Y898944D01*
X306070Y898944D01*
G54D11*
X306070Y893077D02*
X296292Y893077D01*
X296292Y896744D01*
X296903Y898211D01*
X298125Y898944D01*
X299347Y898944D01*
X300570Y898211D01*
X301181Y896744D01*
X301181Y893077D01*
G54D11*
X304236Y902366D02*
X305458Y903100D01*
X306070Y904566D01*
X306070Y906033D01*
X305458Y907500D01*
X304236Y908233D01*
X303014Y908233D01*
X301792Y907500D01*
X301181Y906033D01*
X301181Y904566D01*
X300570Y903100D01*
X299347Y902366D01*
X298125Y902366D01*
X296903Y903100D01*
X296292Y904566D01*
X296292Y906033D01*
X296903Y907500D01*
X298125Y908233D01*
G54D11*
X306070Y914589D02*
X296292Y914589D01*
G54D11*
X296292Y911655D02*
X296292Y917522D01*
G54D11*
X302769Y800144D02*
X303991Y802344D01*
X305213Y803078D01*
X307658Y803078D01*
G54D11*
X307658Y797211D02*
X297880Y797211D01*
X297880Y800878D01*
X298491Y802344D01*
X299713Y803078D01*
X300935Y803078D01*
X302158Y802344D01*
X302769Y800878D01*
X302769Y797211D01*
G54D11*
X305824Y806500D02*
X307047Y807234D01*
X307658Y808700D01*
X307658Y810167D01*
X307047Y811634D01*
X305824Y812367D01*
X304602Y812367D01*
X303380Y811634D01*
X302769Y810167D01*
X302769Y808700D01*
X302158Y807234D01*
X300935Y806500D01*
X299713Y806500D01*
X298491Y807234D01*
X297880Y808700D01*
X297880Y810167D01*
X298491Y811634D01*
X299713Y812367D01*
G54D11*
X307658Y818722D02*
X297880Y818722D01*
G54D11*
X297880Y815789D02*
X297880Y821656D01*
G54D11*
X326581Y800162D02*
X326581Y803095D01*
X329636Y803095D01*
X330859Y802362D01*
X331470Y800895D01*
X331470Y799428D01*
X330859Y797962D01*
X329636Y797228D01*
X323525Y797228D01*
X322303Y797962D01*
X321692Y799428D01*
X321692Y800895D01*
X322303Y802362D01*
X323525Y803095D01*
G54D11*
X331470Y806517D02*
X321692Y806517D01*
X331470Y812384D01*
X321692Y812384D01*
G54D11*
X331470Y815806D02*
X321692Y815806D01*
X321692Y819473D01*
X322303Y820940D01*
X323525Y821673D01*
X329636Y821673D01*
X330859Y820940D01*
X331470Y819473D01*
X331470Y815806D01*
G54D11*
X351981Y800162D02*
X353203Y802362D01*
X354426Y803095D01*
X356870Y803095D01*
G54D11*
X356870Y797228D02*
X347092Y797228D01*
X347092Y800895D01*
X347703Y802362D01*
X348926Y803095D01*
X350148Y803095D01*
X351370Y802362D01*
X351981Y800895D01*
X351981Y797228D01*
G54D11*
X356870Y806517D02*
X347092Y810184D01*
X356870Y813851D01*
G54D11*
X353203Y807984D02*
X353203Y812384D01*
G54D11*
X347092Y817272D02*
X356870Y817272D01*
X350759Y820939D01*
X356870Y824606D01*
X347092Y824606D01*
G54D10*
X250825Y812850D02*
X257125Y819150D01*
X269925Y819150D01*
X276225Y812850D01*
X276225Y800050D01*
X269925Y793750D01*
X257125Y793750D01*
X250825Y800050D01*
X250825Y812850D01*
G54D10*
X225425Y812850D02*
X231725Y819150D01*
X244525Y819150D01*
X250825Y812850D01*
X250825Y800050D01*
X244525Y793750D01*
X231725Y793750D01*
X225425Y800050D01*
X225425Y812850D01*
G54D10*
X371425Y780256D02*
X365125Y786556D01*
X365125Y799356D01*
X371425Y805656D01*
X384225Y805656D01*
X390525Y799356D01*
X390525Y786556D01*
X384225Y780256D01*
X371425Y780256D01*
G54D10*
X371425Y805656D02*
X365125Y811956D01*
X365125Y824756D01*
X371425Y831056D01*
X384225Y831056D01*
X390525Y824756D01*
X390525Y811956D01*
X384225Y805656D01*
X371425Y805656D01*
G54D10*
X371425Y831056D02*
X365125Y837356D01*
X365125Y850156D01*
X371425Y856456D01*
X384225Y856456D01*
X390525Y850156D01*
X390525Y837356D01*
X384225Y831056D01*
X371425Y831056D01*
G54D10*
X371425Y857250D02*
X365125Y863549D01*
X365125Y876349D01*
X371425Y882649D01*
X384225Y882649D01*
X390525Y876349D01*
X390525Y863549D01*
X384225Y857249D01*
X371425Y857250D01*
G54D10*
X371425Y882650D02*
X365125Y888949D01*
X365125Y901750D01*
X371425Y908050D01*
X384225Y908050D01*
X390525Y901749D01*
X390525Y888949D01*
X384225Y882649D01*
X371425Y882650D01*
G54D10*
X371425Y908050D02*
X365125Y914349D01*
X365125Y927150D01*
X371425Y933450D01*
X384225Y933450D01*
X390525Y927149D01*
X390525Y914350D01*
X384225Y908050D01*
X371425Y908050D01*
G54D11*
X231334Y822402D02*
X235001Y832180D01*
X238667Y822402D01*
G54D11*
X232801Y826069D02*
X237201Y826069D01*
G54D11*
X246489Y822402D02*
X246489Y832180D01*
X242089Y826069D01*
X242089Y824846D01*
X247956Y824846D01*
G54D11*
X256734Y822402D02*
X260401Y832180D01*
X264067Y822402D01*
G54D11*
X258201Y826069D02*
X262601Y826069D01*
G54D11*
X273356Y832180D02*
X267489Y832180D01*
X267489Y827902D01*
X268222Y827902D01*
X269689Y828513D01*
X271156Y828513D01*
X272622Y827902D01*
X273356Y826680D01*
X273356Y824235D01*
X272622Y823013D01*
X271156Y822402D01*
X269689Y822402D01*
X268222Y823013D01*
X267489Y824235D01*
G54D14*
X108696Y861316D02*
X122029Y896872D01*
X135362Y861316D01*
G54D14*
X114029Y874649D02*
X130029Y874649D01*
G54D14*
X145140Y861316D02*
X145140Y881316D01*
G54D14*
X145140Y876872D02*
X150474Y881316D01*
X155807Y881316D01*
G54D14*
X181586Y861316D02*
X181586Y896872D01*
G54D14*
X181586Y875538D02*
X178919Y879983D01*
X173586Y881316D01*
X168252Y879983D01*
X165586Y875538D01*
X165586Y866649D01*
X168252Y862205D01*
X173586Y861316D01*
X178919Y862205D01*
X181586Y866649D01*
G54D14*
X207364Y881316D02*
X207364Y861316D01*
G54D14*
X207364Y865761D02*
X204697Y862205D01*
X199364Y861316D01*
X194030Y862205D01*
X191364Y865761D01*
X191364Y881316D01*
G54D14*
X217142Y861316D02*
X217142Y881316D01*
G54D14*
X217142Y887983D02*
X217142Y887983D01*
G54D14*
X226920Y861316D02*
X226920Y881316D01*
G54D14*
X226920Y876872D02*
X229586Y879983D01*
X234920Y881316D01*
X240253Y879983D01*
X242920Y876872D01*
X242920Y861316D01*
G54D14*
X268698Y866649D02*
X268698Y875538D01*
X266031Y879983D01*
X260698Y881316D01*
X255364Y879983D01*
X252698Y875538D01*
X252698Y866649D01*
X255364Y862205D01*
X260698Y861316D01*
X266031Y862205D01*
X268698Y866649D01*
G54D15*
X118248Y825500D02*
X118248Y846833D01*
X126248Y846833D01*
X129448Y845500D01*
X131048Y842833D01*
X131048Y840167D01*
X129448Y837500D01*
X126248Y836167D01*
X118248Y836167D01*
G54D15*
X136916Y825500D02*
X136916Y837500D01*
G54D15*
X136916Y834833D02*
X140116Y837500D01*
X143316Y837500D01*
G54D15*
X158782Y828700D02*
X158782Y834033D01*
X157182Y836700D01*
X153982Y837500D01*
X150782Y836700D01*
X149182Y834033D01*
X149182Y828700D01*
X150782Y826033D01*
X153982Y825500D01*
X157182Y826033D01*
X158782Y828700D01*
G54D15*
X170836Y825500D02*
X170836Y846833D01*
X178836Y833500D01*
X186836Y846833D01*
X186836Y825500D01*
G54D15*
X192704Y825500D02*
X192704Y837500D01*
G54D15*
X192704Y841500D02*
X192704Y841500D01*
G54D15*
X198570Y825500D02*
X198570Y837500D01*
G54D15*
X198570Y834833D02*
X200170Y836700D01*
X203370Y837500D01*
X206570Y836700D01*
X208170Y834833D01*
X208170Y825500D01*
G54D15*
X214038Y825500D02*
X214038Y837500D01*
G54D15*
X214038Y841500D02*
X214038Y841500D01*
G54D16*
X8338Y991650D02*
X588338Y991650D01*
X588338Y646650D01*
X8338Y646650D01*
X8338Y991650D01*
G54D16*
G75*
G01X63338Y961650D02*
G03X63338Y961650I-25000J0D01*
G01*
G54D16*
G75*
G01X63337Y676650D02*
G03X63337Y676650I-25000J0D01*
G01*
G54D16*
G75*
G01X583338Y676650D02*
G03X583338Y676650I-25000J0D01*
G01*
G54D16*
G75*
G01X583338Y961650D02*
G03X583338Y961650I-25000J0D01*
G01*
G54D10*
X39738Y742950D02*
X46038Y749250D01*
X46038Y762050D01*
X39738Y768350D01*
X26937Y768350D01*
X20638Y762050D01*
X20638Y749250D01*
X26937Y742950D01*
X39738Y742950D01*
G54D10*
X39738Y768350D02*
X46038Y774650D01*
X46038Y787450D01*
X39737Y793750D01*
X26938Y793750D01*
X20638Y787450D01*
X20638Y774650D01*
X26937Y768350D01*
X39738Y768350D01*
G54D10*
X39737Y793750D02*
X46038Y800050D01*
X46038Y812850D01*
X39738Y819150D01*
X26938Y819150D01*
X20638Y812850D01*
X20638Y800050D01*
X26938Y793750D01*
X39737Y793750D01*
G54D10*
X39738Y819150D02*
X46038Y825450D01*
X46038Y838250D01*
X39738Y844550D01*
X26938Y844550D01*
X20638Y838250D01*
X20638Y825450D01*
X26938Y819150D01*
X39738Y819150D01*
G54D10*
X39738Y844550D02*
X46038Y850850D01*
X46038Y863650D01*
X39738Y869950D01*
X26938Y869950D01*
X20638Y863650D01*
X20638Y850850D01*
X26938Y844550D01*
X39738Y844550D01*
G54D10*
X39738Y869950D02*
X46038Y876250D01*
X46038Y889050D01*
X39738Y895350D01*
X26937Y895350D01*
X20638Y889050D01*
X20638Y876250D01*
X26938Y869950D01*
X39738Y869950D01*
G54D10*
X39738Y895350D02*
X46038Y901650D01*
X46038Y914450D01*
X39738Y920750D01*
X26937Y920750D01*
X20638Y914450D01*
X20638Y901650D01*
X26937Y895350D01*
X39738Y895350D01*
G54D10*
X46038Y736650D02*
X39738Y742950D01*
X26937Y742950D01*
X20637Y736650D01*
X20638Y723850D01*
X26937Y717550D01*
X39737Y717550D01*
X46038Y723850D01*
X46038Y736650D01*
G54D10*
X96975Y703675D02*
X93775Y703675D01*
X93775Y723675D01*
X96975Y723675D01*
X96975Y703675D01*
G54D10*
X100175Y703675D02*
X100175Y723675D01*
G54D10*
G75*
G01X137475Y714375D02*
G03X137475Y714375I-40000J0D01*
G01*
G54D10*
X100475Y714375D02*
X107475Y714375D01*
G54D10*
X93475Y714375D02*
X87475Y714375D01*
G54D17*
X71475Y736575D02*
X82175Y736575D01*
G54D17*
X76775Y732175D02*
X76775Y741075D01*
G54D10*
X395700Y687250D02*
X395700Y690450D01*
X415700Y690450D01*
X415700Y687250D01*
X395700Y687250D01*
G54D10*
X395700Y684050D02*
X415700Y684050D01*
G54D10*
G75*
G01X446400Y686750D02*
G03X446400Y686750I-40000J0D01*
G01*
G54D10*
X406400Y683750D02*
X406400Y676750D01*
G54D10*
X406400Y690750D02*
X406400Y696750D01*
G54D17*
X428600Y712750D02*
X428600Y702050D01*
G54D17*
X424200Y707450D02*
X433100Y707450D01*
G54D18*
X339900Y646944D02*
X339900Y646251D01*
X339322Y646251D01*
X339322Y646944D01*
X339900Y646944D01*
X339900Y646251D01*
G36*
X238175Y654025D02*
X149375Y654025D01*
X149375Y647625D01*
X238175Y647625D01*
X238175Y654025D01*
G37*
G54D10*
X238175Y654025D02*
X149375Y654025D01*
X149375Y647625D01*
X238175Y647625D01*
X238175Y654025D01*
G54D10*
X238175Y647625D02*
X238175Y685625D01*
X149175Y685625D01*
X149175Y647625D01*
X238175Y647625D01*
G54D10*
X495250Y714375D02*
X488950Y708075D01*
X488950Y695275D01*
X495250Y688975D01*
X508050Y688975D01*
X514350Y695275D01*
X514350Y708075D01*
X508050Y714375D01*
X495250Y714375D01*
G54D10*
X495250Y688975D02*
X488950Y682675D01*
X488950Y669875D01*
X495250Y663575D01*
X508050Y663575D01*
X514350Y669875D01*
X514350Y682675D01*
X508050Y688975D01*
X495250Y688975D01*
G54D16*
X8338Y991650D02*
X588338Y991650D01*
X588338Y646650D01*
X8338Y646650D01*
X8338Y991650D01*
G54D16*
G75*
G01X63338Y961650D02*
G03X63338Y961650I-25000J0D01*
G01*
G54D16*
G75*
G01X63337Y676650D02*
G03X63337Y676650I-25000J0D01*
G01*
G54D16*
G75*
G01X583338Y676650D02*
G03X583338Y676650I-25000J0D01*
G01*
G54D16*
G75*
G01X583338Y961650D02*
G03X583338Y961650I-25000J0D01*
G01*
G36*
X349300Y654025D02*
X260500Y654025D01*
X260500Y647625D01*
X349300Y647625D01*
X349300Y654025D01*
G37*
G54D10*
X349300Y654025D02*
X260500Y654025D01*
X260500Y647625D01*
X349300Y647625D01*
X349300Y654025D01*
G54D10*
X349300Y647625D02*
X349300Y685625D01*
X260300Y685625D01*
X260300Y647625D01*
X349300Y647625D01*
G54D10*
X282575Y720675D02*
X288875Y714375D01*
X301675Y714375D01*
X307975Y720675D01*
X307975Y733475D01*
X301675Y739775D01*
X288875Y739775D01*
X282575Y733475D01*
X282575Y720675D01*
G54D10*
X307975Y720675D02*
X314275Y714375D01*
X327075Y714375D01*
X333375Y720675D01*
X333375Y733475D01*
X327075Y739775D01*
X314275Y739775D01*
X307975Y733475D01*
X307975Y720675D01*
G54D10*
X231775Y736650D02*
X225475Y742950D01*
X212675Y742950D01*
X206375Y736650D01*
X206375Y723850D01*
X212675Y717550D01*
X225475Y717550D01*
X231775Y723850D01*
X231775Y736650D01*
G54D10*
X206375Y736650D02*
X200075Y742950D01*
X187275Y742950D01*
X180975Y736650D01*
X180975Y723850D01*
X187275Y717550D01*
X200075Y717550D01*
X206375Y723850D01*
X206375Y736650D01*
G54D19*
X162147Y692190D02*
X140147Y692190D01*
X140147Y742190D01*
X162147Y742190D01*
X162147Y692190D01*
G54D18*
X169798Y698861D02*
X165465Y703194D01*
X177021Y703194D01*
G54D18*
X167632Y714171D02*
X174854Y714171D01*
X176298Y713304D01*
X177021Y711571D01*
X177021Y709838D01*
X176298Y708104D01*
X174854Y707238D01*
X167632Y707238D01*
X166187Y708104D01*
X165465Y709838D01*
X165465Y711571D01*
X166187Y713304D01*
X167632Y714171D01*
G54D18*
X167632Y725148D02*
X174854Y725148D01*
X176298Y724281D01*
X177021Y722548D01*
X177021Y720815D01*
X176298Y719081D01*
X174854Y718215D01*
X167632Y718215D01*
X166187Y719081D01*
X165465Y720815D01*
X165465Y722548D01*
X166187Y724281D01*
X167632Y725148D01*
G54D18*
X177021Y729192D02*
X170521Y729192D01*
G54D18*
X171965Y729192D02*
X170954Y730058D01*
X170521Y731792D01*
X170954Y733525D01*
X171965Y734392D01*
X177021Y734392D01*
G54D20*
X157468Y761302D02*
X149468Y761302D01*
X149468Y755469D01*
X150468Y755469D01*
X152468Y756302D01*
X154468Y756302D01*
X156468Y755469D01*
X157468Y753802D01*
X157468Y750469D01*
X156468Y748802D01*
X154468Y747969D01*
X152468Y747969D01*
X150468Y748802D01*
X149468Y750469D01*
G54D20*
X162135Y761302D02*
X167135Y747969D01*
X172135Y761302D01*
G54D20*
X241156Y746994D02*
X241156Y760327D01*
X248156Y760327D01*
G54D20*
X241156Y753660D02*
X248156Y753660D01*
G54D20*
X252823Y746994D02*
X257823Y760327D01*
X262823Y746994D01*
G54D20*
X254823Y751994D02*
X260823Y751994D01*
G54D20*
X267490Y746994D02*
X267490Y760327D01*
X275490Y746994D01*
X275490Y760327D01*
G54D20*
X340966Y754458D02*
X345966Y759458D01*
X345966Y746125D01*
G54D20*
X358633Y746125D02*
X350633Y746125D01*
X350633Y746958D01*
X351633Y748625D01*
X357633Y753625D01*
X358633Y755292D01*
X358633Y756958D01*
X357633Y758625D01*
X355633Y759458D01*
X353633Y759458D01*
X351633Y758625D01*
X350633Y756958D01*
G54D20*
X363300Y759458D02*
X368300Y746125D01*
X373300Y759458D01*
G54D21*
X466725Y674133D02*
X450725Y674133D01*
G54D21*
X466725Y702708D02*
X450725Y702708D01*
G54D21*
X458725Y696042D02*
X458725Y709375D01*
G54D19*
X146075Y961550D02*
X146075Y981550D01*
X184075Y981550D01*
X184075Y961550D01*
X146075Y961550D01*
G54D22*
X148825Y954703D02*
X152159Y958036D01*
X152159Y949148D01*
G54D22*
X160603Y956370D02*
X160603Y950814D01*
X159936Y949703D01*
X158603Y949148D01*
X157269Y949148D01*
X155936Y949703D01*
X155269Y950814D01*
X155269Y956370D01*
X155936Y957481D01*
X157269Y958036D01*
X158603Y958036D01*
X159936Y957481D01*
X160603Y956370D01*
G54D22*
X169047Y956370D02*
X169047Y950814D01*
X168380Y949703D01*
X167047Y949148D01*
X165713Y949148D01*
X164380Y949703D01*
X163713Y950814D01*
X163713Y956370D01*
X164380Y957481D01*
X165713Y958036D01*
X167047Y958036D01*
X168380Y957481D01*
X169047Y956370D01*
G54D22*
X172157Y949148D02*
X172157Y958036D01*
G54D22*
X172157Y951925D02*
X177491Y958036D01*
G54D22*
X174157Y953592D02*
X177491Y949148D01*
G54D18*
X469979Y971425D02*
X476912Y971425D01*
G54D18*
X473445Y971425D02*
X473445Y982981D01*
G54D18*
X469979Y982981D02*
X476912Y982981D01*
G54D18*
X480956Y971425D02*
X480956Y982981D01*
X487889Y971425D01*
X487889Y982981D01*
G54D23*
X473154Y955747D02*
X486487Y955747D01*
G54D23*
X479820Y961303D02*
X479820Y950192D01*
G54D20*
X333454Y955550D02*
X333454Y968883D01*
X338454Y960550D01*
X343454Y968883D01*
X343454Y955550D01*
G54D20*
X348121Y955550D02*
X353121Y968883D01*
X358121Y955550D01*
G54D20*
X350121Y960550D02*
X356121Y960550D01*
G54D20*
X362788Y968883D02*
X372788Y955550D01*
G54D20*
X362788Y955550D02*
X372788Y968883D01*
G54D20*
X382322Y966383D02*
X383322Y968050D01*
X385322Y968883D01*
X387322Y968883D01*
X389322Y968050D01*
X390322Y966383D01*
X390322Y964717D01*
X389322Y963050D01*
X387322Y962217D01*
X389322Y961383D01*
X390322Y959717D01*
X390322Y958050D01*
X389322Y956383D01*
X387322Y955550D01*
X385322Y955550D01*
X383322Y956383D01*
X382322Y958050D01*
G54D20*
X402989Y966383D02*
X401989Y968050D01*
X399989Y968883D01*
X397989Y968883D01*
X395989Y968050D01*
X394989Y966383D01*
X394989Y962217D01*
X394989Y961383D01*
X397989Y963050D01*
X399989Y963050D01*
X401989Y962217D01*
X402989Y960550D01*
X402989Y958050D01*
X401989Y956383D01*
X399989Y955550D01*
X397989Y955550D01*
X395989Y956383D01*
X394989Y958050D01*
X394989Y962217D01*
G54D20*
X407656Y968883D02*
X412656Y955550D01*
X417656Y968883D01*
G54D24*
X586581Y933450D02*
X396081Y933450D01*
X396081Y730250D01*
X586581Y730250D01*
X586581Y933450D01*
G54D10*
X415181Y831850D02*
X421481Y838150D01*
X421481Y850950D01*
X415181Y857250D01*
X402381Y857250D01*
X396081Y850950D01*
X396081Y838150D01*
X402381Y831850D01*
X415181Y831850D01*
G54D10*
X415181Y857250D02*
X421481Y863550D01*
X421481Y876350D01*
X415181Y882650D01*
X402381Y882650D01*
X396081Y876350D01*
X396081Y863550D01*
X402381Y857250D01*
X415181Y857250D01*
G54D10*
X415181Y882650D02*
X421481Y888950D01*
X421481Y901750D01*
X415181Y908050D01*
X402381Y908050D01*
X396081Y901750D01*
X396081Y888950D01*
X402381Y882650D01*
X415181Y882650D01*
G54D10*
X415181Y908050D02*
X421481Y914350D01*
X421481Y927150D01*
X415181Y933450D01*
X402381Y933450D01*
X396081Y927150D01*
X396081Y914350D01*
X402381Y908050D01*
X415181Y908050D01*
G54D10*
X415181Y730250D02*
X421481Y736550D01*
X421481Y749350D01*
X415181Y755650D01*
X402381Y755650D01*
X396081Y749350D01*
X396081Y736550D01*
X402381Y730250D01*
X415181Y730250D01*
G54D10*
X415181Y755650D02*
X421481Y761950D01*
X421481Y774750D01*
X415181Y781050D01*
X402381Y781050D01*
X396081Y774750D01*
X396081Y761950D01*
X402381Y755650D01*
X415181Y755650D01*
G54D10*
X415181Y781050D02*
X421481Y787350D01*
X421481Y800150D01*
X415181Y806450D01*
X402381Y806450D01*
X396081Y800150D01*
X396081Y787350D01*
X402381Y781050D01*
X415181Y781050D01*
G54D10*
X415181Y806450D02*
X421481Y812750D01*
X421481Y825550D01*
X415181Y831850D01*
X402381Y831850D01*
X396081Y825550D01*
X396081Y812750D01*
X402381Y806450D01*
X415181Y806450D01*
G54D25*
X427831Y914400D02*
X436365Y914400D01*
G54D25*
X432098Y914400D02*
X432098Y928622D01*
G54D25*
X427831Y928622D02*
X436365Y928622D01*
G54D25*
X441342Y914400D02*
X441342Y928622D01*
X449876Y914400D01*
X449876Y928622D01*
G54D25*
X454853Y920622D02*
X463387Y920622D01*
G54D25*
X459120Y924178D02*
X459120Y917067D01*
G54D25*
X427831Y889000D02*
X436365Y889000D01*
G54D25*
X432098Y889000D02*
X432098Y903222D01*
G54D25*
X427831Y903222D02*
X436365Y903222D01*
G54D25*
X441342Y889000D02*
X441342Y903222D01*
X449876Y889000D01*
X449876Y903222D01*
G54D25*
X454853Y895222D02*
X463387Y895222D01*
G54D25*
X427831Y877822D02*
X433165Y863600D01*
X438498Y877822D01*
G54D25*
X443476Y863600D02*
X443476Y877822D01*
X448810Y877822D01*
X450943Y876933D01*
X452010Y875156D01*
X452010Y873378D01*
X450943Y871600D01*
X448810Y870711D01*
X450943Y869822D01*
X452010Y868044D01*
X452010Y866267D01*
X450943Y864489D01*
X448810Y863600D01*
X443476Y863600D01*
G54D25*
X443476Y870711D02*
X448810Y870711D01*
G54D25*
X456987Y866267D02*
X458054Y864489D01*
X460187Y863600D01*
X462321Y863600D01*
X464454Y864489D01*
X465521Y866267D01*
X465521Y868044D01*
X464454Y869822D01*
X462321Y870711D01*
X460187Y870711D01*
X458054Y871600D01*
X456987Y873378D01*
X456987Y875156D01*
X458054Y876933D01*
X460187Y877822D01*
X462321Y877822D01*
X464454Y876933D01*
X465521Y875156D01*
G54D25*
X427831Y838200D02*
X433165Y852422D01*
X438498Y838200D01*
G54D25*
X429965Y843533D02*
X436365Y843533D01*
G54D25*
X443476Y852422D02*
X443476Y838200D01*
X450943Y838200D01*
G54D25*
X463388Y838200D02*
X455921Y838200D01*
X455921Y852422D01*
X463388Y852422D01*
G54D25*
X455921Y845311D02*
X463388Y845311D01*
G54D25*
X427831Y815467D02*
X428898Y813689D01*
X431031Y812800D01*
X433165Y812800D01*
X435298Y813689D01*
X436365Y815467D01*
X436365Y817244D01*
X435298Y819022D01*
X433165Y819911D01*
X431031Y819911D01*
X428898Y820800D01*
X427831Y822578D01*
X427831Y824356D01*
X428898Y826133D01*
X431031Y827022D01*
X433165Y827022D01*
X435298Y826133D01*
X436365Y824356D01*
G54D25*
X441342Y812800D02*
X441342Y827022D01*
X446676Y827022D01*
X448809Y826133D01*
X449876Y824356D01*
X449876Y815467D01*
X448809Y813689D01*
X446676Y812800D01*
X441342Y812800D01*
G54D25*
X454853Y812800D02*
X460187Y827022D01*
X465520Y812800D01*
G54D25*
X456987Y818133D02*
X463387Y818133D01*
G54D25*
X427831Y790067D02*
X428898Y788289D01*
X431031Y787400D01*
X433165Y787400D01*
X435298Y788289D01*
X436365Y790067D01*
X436365Y791844D01*
X435298Y793622D01*
X433165Y794511D01*
X431031Y794511D01*
X428898Y795400D01*
X427831Y797178D01*
X427831Y798956D01*
X428898Y800733D01*
X431031Y801622D01*
X433165Y801622D01*
X435298Y800733D01*
X436365Y798956D01*
G54D25*
X449876Y790067D02*
X448809Y788289D01*
X446676Y787400D01*
X444542Y787400D01*
X442409Y788289D01*
X441342Y790067D01*
X441342Y798956D01*
X442409Y800733D01*
X444542Y801622D01*
X446676Y801622D01*
X448809Y800733D01*
X449876Y798956D01*
G54D25*
X454853Y801622D02*
X454853Y787400D01*
X462320Y787400D01*
G54D25*
X432098Y769111D02*
X436365Y769111D01*
X436365Y764667D01*
X435298Y762889D01*
X433165Y762000D01*
X431031Y762000D01*
X428898Y762889D01*
X427831Y764667D01*
X427831Y773556D01*
X428898Y775333D01*
X431031Y776222D01*
X433165Y776222D01*
X435298Y775333D01*
X436365Y773556D01*
G54D25*
X441342Y762000D02*
X441342Y776222D01*
X449876Y762000D01*
X449876Y776222D01*
G54D25*
X454853Y762000D02*
X454853Y776222D01*
X460187Y776222D01*
X462320Y775333D01*
X463387Y773556D01*
X463387Y764667D01*
X462320Y762889D01*
X460187Y762000D01*
X454853Y762000D01*
G54D25*
X427831Y750822D02*
X433165Y736600D01*
X438498Y750822D01*
G54D25*
X452010Y739267D02*
X450943Y737489D01*
X448810Y736600D01*
X446676Y736600D01*
X444543Y737489D01*
X443476Y739267D01*
X443476Y748156D01*
X444543Y749933D01*
X446676Y750822D01*
X448810Y750822D01*
X450943Y749933D01*
X452010Y748156D01*
G54D25*
X465521Y739267D02*
X464454Y737489D01*
X462321Y736600D01*
X460187Y736600D01*
X458054Y737489D01*
X456987Y739267D01*
X456987Y748156D01*
X458054Y749933D01*
X460187Y750822D01*
X462321Y750822D01*
X464454Y749933D01*
X465521Y748156D01*
G54D21*
X534231Y759935D02*
X534231Y775935D01*
G54D21*
X534231Y767935D02*
X507564Y767935D01*
G54D21*
X507564Y759935D02*
X507564Y775935D01*
G54D21*
X534231Y785268D02*
X507564Y785268D01*
X534231Y801268D01*
X507564Y801268D01*
G54D21*
X534231Y810601D02*
X507564Y820601D01*
X534231Y830601D01*
G54D21*
X524231Y814601D02*
X524231Y826601D01*
G54D21*
X534231Y855934D02*
X534231Y839934D01*
X532564Y839934D01*
X529231Y841934D01*
X519231Y853934D01*
X515898Y855934D01*
X512564Y855934D01*
X509231Y853934D01*
X507564Y849934D01*
X507564Y845934D01*
X509231Y841934D01*
X512564Y839934D01*
G54D21*
X534231Y881267D02*
X534231Y865267D01*
X532564Y865267D01*
X529231Y867267D01*
X519231Y879267D01*
X515898Y881267D01*
X512564Y881267D01*
X509231Y879267D01*
X507564Y875267D01*
X507564Y871267D01*
X509231Y867267D01*
X512564Y865267D01*
G54D21*
X512564Y906600D02*
X509231Y904600D01*
X507564Y900600D01*
X507564Y896600D01*
X509231Y892600D01*
X512564Y890600D01*
X520898Y890600D01*
X522564Y890600D01*
X519231Y896600D01*
X519231Y900600D01*
X520898Y904600D01*
X524231Y906600D01*
X529231Y906600D01*
X532564Y904600D01*
X534231Y900600D01*
X534231Y896600D01*
X532564Y892600D01*
X529231Y890600D01*
X520898Y890600D01*
G54D22*
X286024Y699056D02*
X286024Y690167D01*
X290691Y690167D01*
G54D22*
X293802Y699056D02*
X299135Y699056D01*
X298469Y697944D01*
X297135Y696278D01*
X295802Y694056D01*
X295135Y692389D01*
X295135Y690167D01*
G54D22*
X305579Y694611D02*
X304246Y694611D01*
X302913Y695167D01*
X302246Y696278D01*
X302246Y697389D01*
X302913Y698500D01*
X304246Y699056D01*
X305579Y699056D01*
X306913Y698500D01*
X307579Y697389D01*
X307579Y696278D01*
X306913Y695167D01*
X305579Y694611D01*
X306913Y694056D01*
X307579Y692944D01*
X307579Y691833D01*
X306913Y690722D01*
X305579Y690167D01*
X304246Y690167D01*
X302913Y690722D01*
X302246Y691833D01*
X302246Y692944D01*
X302913Y694056D01*
X304246Y694611D01*
G54D22*
X310690Y695722D02*
X314023Y699056D01*
X314023Y690167D01*
G54D22*
X322467Y690167D02*
X317134Y690167D01*
X317134Y690722D01*
X317801Y691833D01*
X321801Y695167D01*
X322467Y696278D01*
X322467Y697389D01*
X321801Y698500D01*
X320467Y699056D01*
X319134Y699056D01*
X317801Y698500D01*
X317134Y697389D01*
G54D22*
X174899Y699056D02*
X174899Y690167D01*
X179566Y690167D01*
G54D22*
X182677Y699056D02*
X188010Y699056D01*
X187344Y697944D01*
X186010Y696278D01*
X184677Y694056D01*
X184010Y692389D01*
X184010Y690167D01*
G54D22*
X194454Y694611D02*
X193121Y694611D01*
X191788Y695167D01*
X191121Y696278D01*
X191121Y697389D01*
X191788Y698500D01*
X193121Y699056D01*
X194454Y699056D01*
X195788Y698500D01*
X196454Y697389D01*
X196454Y696278D01*
X195788Y695167D01*
X194454Y694611D01*
X195788Y694056D01*
X196454Y692944D01*
X196454Y691833D01*
X195788Y690722D01*
X194454Y690167D01*
X193121Y690167D01*
X191788Y690722D01*
X191121Y691833D01*
X191121Y692944D01*
X191788Y694056D01*
X193121Y694611D01*
G54D22*
X204898Y697389D02*
X204898Y691833D01*
X204232Y690722D01*
X202898Y690167D01*
X201565Y690167D01*
X200232Y690722D01*
X199565Y691833D01*
X199565Y697389D01*
X200232Y698500D01*
X201565Y699056D01*
X202898Y699056D01*
X204232Y698500D01*
X204898Y697389D01*
G54D22*
X213342Y699056D02*
X208009Y699056D01*
X208009Y695167D01*
X208676Y695167D01*
X210009Y695722D01*
X211342Y695722D01*
X212676Y695167D01*
X213342Y694056D01*
X213342Y691833D01*
X212676Y690722D01*
X211342Y690167D01*
X210009Y690167D01*
X208676Y690722D01*
X208009Y691833D01*
G54D10*
X196850Y965150D02*
X203150Y958850D01*
X215950Y958850D01*
X222250Y965150D01*
X222250Y977950D01*
X215950Y984250D01*
X203150Y984250D01*
X196850Y977950D01*
X196850Y965150D01*
G54D10*
X222250Y965150D02*
X228550Y958850D01*
X241350Y958850D01*
X247650Y965150D01*
X247650Y977950D01*
X241350Y984250D01*
X228550Y984250D01*
X222250Y977950D01*
X222250Y965150D01*
G54D20*
X263525Y971550D02*
X263525Y984883D01*
X271525Y971550D01*
X271525Y984883D01*
G54D20*
X280192Y971550D02*
X280192Y984883D01*
G54D20*
X276192Y984883D02*
X284192Y984883D01*
G54D20*
X296859Y974050D02*
X295859Y972383D01*
X293859Y971550D01*
X291859Y971550D01*
X289859Y972383D01*
X288859Y974050D01*
X288859Y982383D01*
X289859Y984050D01*
X291859Y984883D01*
X293859Y984883D01*
X295859Y984050D01*
X296859Y982383D01*
G54D19*
X126975Y981550D02*
X126975Y961550D01*
X88975Y961550D01*
X88975Y981550D01*
X126975Y981550D01*
G54D22*
X100544Y956601D02*
X101211Y957712D01*
X102544Y958268D01*
X103878Y958268D01*
X105211Y957712D01*
X105878Y956601D01*
X105878Y955490D01*
X105211Y954379D01*
X103878Y953823D01*
X105211Y953268D01*
X105878Y952156D01*
X105878Y951045D01*
X105211Y949934D01*
X103878Y949379D01*
X102544Y949379D01*
X101211Y949934D01*
X100544Y951045D01*
G54D22*
X108988Y956601D02*
X109655Y957712D01*
X110988Y958268D01*
X112322Y958268D01*
X113655Y957712D01*
X114322Y956601D01*
X114322Y955490D01*
X113655Y954379D01*
X112322Y953823D01*
X113655Y953268D01*
X114322Y952156D01*
X114322Y951045D01*
X113655Y949934D01*
X112322Y949379D01*
X110988Y949379D01*
X109655Y949934D01*
X108988Y951045D01*
G54D22*
X117432Y953268D02*
X122766Y953268D01*
G54D22*
X120099Y955490D02*
X120099Y951045D01*
G54D22*
X118099Y954934D02*
X122099Y951601D01*
G54D22*
X118099Y951601D02*
X122099Y954934D01*
G54D20*
X257175Y960833D02*
X262175Y965833D01*
X262175Y952500D01*
G54D20*
X274842Y963333D02*
X274842Y955000D01*
X273842Y953333D01*
X271842Y952500D01*
X269842Y952500D01*
X267842Y953333D01*
X266842Y955000D01*
X266842Y963333D01*
X267842Y965000D01*
X269842Y965833D01*
X271842Y965833D01*
X273842Y965000D01*
X274842Y963333D01*
G54D20*
X287509Y963333D02*
X287509Y955000D01*
X286509Y953333D01*
X284509Y952500D01*
X282509Y952500D01*
X280509Y953333D01*
X279509Y955000D01*
X279509Y963333D01*
X280509Y965000D01*
X282509Y965833D01*
X284509Y965833D01*
X286509Y965000D01*
X287509Y963333D01*
G54D20*
X292176Y952500D02*
X292176Y965833D01*
G54D20*
X292176Y956667D02*
X300176Y965833D01*
G54D20*
X295176Y959167D02*
X300176Y952500D01*
G54D26*
X225425Y757397D02*
X214758Y757397D01*
G54D26*
X200025Y757397D02*
X189358Y757397D01*
G54D26*
X194692Y752953D02*
X194692Y761842D01*
G54D26*
X327025Y757397D02*
X316358Y757397D01*
G54D26*
X301625Y757397D02*
X290958Y757397D01*
G54D26*
X296292Y752952D02*
X296292Y761841D01*
G54D10*
X438100Y974725D02*
X431800Y968425D01*
X431800Y955625D01*
X438100Y949325D01*
X450900Y949325D01*
X457200Y955625D01*
X457200Y968425D01*
X450900Y974725D01*
X438100Y974725D01*
G54D10*
X556938Y768950D02*
X550637Y775250D01*
X550637Y788050D01*
X556937Y794350D01*
X569737Y794350D01*
X576037Y788050D01*
X576037Y775250D01*
X569737Y768950D01*
X556938Y768950D01*
G54D10*
X556937Y794350D02*
X550637Y800650D01*
X550637Y813450D01*
X556937Y819750D01*
X569737Y819750D01*
X576037Y813450D01*
X576037Y800650D01*
X569737Y794350D01*
X556937Y794350D01*
G54D10*
X556937Y819750D02*
X550637Y826050D01*
X550637Y838850D01*
X556937Y845150D01*
X569737Y845150D01*
X576037Y838850D01*
X576037Y826050D01*
X569737Y819750D01*
X556937Y819750D01*
G54D10*
X556937Y845150D02*
X550637Y851450D01*
X550637Y864250D01*
X556937Y870550D01*
X569737Y870550D01*
X576037Y864250D01*
X576037Y851450D01*
X569737Y845150D01*
X556937Y845150D01*
G54D10*
X39738Y895350D02*
X46038Y889050D01*
X46038Y876250D01*
X39738Y869950D01*
X26937Y869950D01*
X20638Y876250D01*
X20638Y889050D01*
X26937Y895350D01*
X39738Y895350D01*
G54D10*
X39738Y869950D02*
X46038Y863650D01*
X46038Y850850D01*
X39737Y844550D01*
X26938Y844550D01*
X20638Y850850D01*
X20638Y863650D01*
X26937Y869950D01*
X39738Y869950D01*
G54D10*
X39737Y844550D02*
X46038Y838250D01*
X46038Y825450D01*
X39738Y819150D01*
X26938Y819150D01*
X20638Y825450D01*
X20638Y838250D01*
X26938Y844550D01*
X39737Y844550D01*
G54D10*
X39738Y819150D02*
X46038Y812850D01*
X46038Y800050D01*
X39738Y793750D01*
X26938Y793750D01*
X20638Y800050D01*
X20638Y812850D01*
X26938Y819150D01*
X39738Y819150D01*
G54D10*
X39738Y793750D02*
X46038Y787450D01*
X46038Y774650D01*
X39738Y768350D01*
X26938Y768350D01*
X20638Y774650D01*
X20638Y787450D01*
X26938Y793750D01*
X39738Y793750D01*
G54D10*
X39738Y768350D02*
X46038Y762050D01*
X46038Y749250D01*
X39738Y742950D01*
X26937Y742950D01*
X20638Y749250D01*
X20638Y762050D01*
X26938Y768350D01*
X39738Y768350D01*
G54D10*
X39738Y742950D02*
X46038Y736650D01*
X46038Y723850D01*
X39738Y717550D01*
X26937Y717550D01*
X20638Y723850D01*
X20638Y736650D01*
X26937Y742950D01*
X39738Y742950D01*
G54D10*
X46038Y901650D02*
X39738Y895350D01*
X26937Y895350D01*
X20637Y901650D01*
X20638Y914450D01*
X26937Y920750D01*
X39737Y920750D01*
X46038Y914450D01*
X46038Y901650D01*
M02*
