%FSLAX34Y34*%
%MOMM*%
%LNSOLDERMASK_BOTTOM*%
G71*
G01*
%ADD10C, 2.10*%
%ADD11C, 2.30*%
%ADD12R, 1.80X1.80*%
%ADD13C, 1.20*%
%ADD14C, 2.00*%
%ADD15C, 2.40*%
%ADD16C, 2.20*%
%ADD17C, 1.60*%
%ADD18C, 1.70*%
%ADD19R, 7.20X6.20*%
%ADD20R, 2.74X1.47*%
%ADD21R, 1.50X1.60*%
%ADD22R, 1.60X1.50*%
%ADD23C, 2.00*%
%LPD*%
X263520Y806450D02*
G54D10*
D03*
X250825Y933400D02*
G54D10*
D03*
X123825Y933450D02*
G54D10*
D03*
X200025Y933450D02*
G54D10*
D03*
X225425Y933450D02*
G54D10*
D03*
X73025Y933450D02*
G54D10*
D03*
X250825Y781050D02*
G54D10*
D03*
X123825Y781050D02*
G54D10*
D03*
X200025Y781050D02*
G54D10*
D03*
X73025Y781050D02*
G54D10*
D03*
X98425Y781050D02*
G54D10*
D03*
X276225Y933450D02*
G54D10*
D03*
X149225Y781050D02*
G54D10*
D03*
X276225Y781050D02*
G54D10*
D03*
X327025Y781050D02*
G54D10*
D03*
X238517Y806053D02*
G54D10*
D03*
X33338Y755650D02*
G54D11*
D03*
X33337Y781050D02*
G54D11*
D03*
X33337Y806450D02*
G54D11*
D03*
X33337Y831850D02*
G54D11*
D03*
X33338Y857250D02*
G54D11*
D03*
X33338Y882650D02*
G54D11*
D03*
X33338Y908050D02*
G54D11*
D03*
X33338Y730250D02*
G54D11*
D03*
X374650Y701675D02*
G54D12*
D03*
X374650Y673675D02*
G54D12*
D03*
X66675Y831850D02*
G54D13*
D03*
X117475Y714375D02*
G54D14*
D03*
X77475Y714375D02*
G54D14*
D03*
X406400Y666750D02*
G54D14*
D03*
X406400Y706750D02*
G54D14*
D03*
X219075Y669925D02*
G54D15*
D03*
X193675Y669925D02*
G54D15*
D03*
X168275Y669925D02*
G54D15*
D03*
X501650Y701675D02*
G54D16*
D03*
X501650Y676275D02*
G54D16*
D03*
X73025Y933450D02*
G54D17*
D03*
X123825Y933450D02*
G54D17*
D03*
X33337Y806450D02*
G54D18*
D03*
X330200Y669925D02*
G54D15*
D03*
X304800Y669925D02*
G54D15*
D03*
X279400Y669925D02*
G54D15*
D03*
X133350Y882650D02*
G54D19*
D03*
X193650Y860350D02*
G54D20*
D03*
X193650Y904850D02*
G54D20*
D03*
X295275Y727075D02*
G54D11*
D03*
X320675Y727075D02*
G54D11*
D03*
X219075Y730250D02*
G54D11*
D03*
X193675Y730250D02*
G54D11*
D03*
X250825Y933400D02*
G54D17*
D03*
X276225Y781050D02*
G54D17*
D03*
X408781Y742950D02*
G54D17*
D03*
X238125Y882650D02*
G54D21*
D03*
X219125Y882650D02*
G54D21*
D03*
X238075Y904875D02*
G54D21*
D03*
X219075Y904875D02*
G54D21*
D03*
X408781Y844550D02*
G54D17*
D03*
X408781Y819150D02*
G54D17*
D03*
X408781Y793750D02*
G54D17*
D03*
X263520Y806450D02*
G54D17*
D03*
X238517Y806053D02*
G54D17*
D03*
X444518Y847756D02*
G54D22*
D03*
X444518Y866756D02*
G54D22*
D03*
X444500Y920750D02*
G54D22*
D03*
X444500Y901750D02*
G54D22*
D03*
X408781Y844550D02*
G54D10*
D03*
X408781Y869950D02*
G54D10*
D03*
X408781Y895350D02*
G54D10*
D03*
X408781Y920750D02*
G54D10*
D03*
X408781Y742950D02*
G54D10*
D03*
X408781Y768350D02*
G54D10*
D03*
X408781Y793750D02*
G54D10*
D03*
X408781Y819150D02*
G54D10*
D03*
X200025Y781050D02*
G54D17*
D03*
X209550Y971550D02*
G54D16*
D03*
X234950Y971550D02*
G54D16*
D03*
X200025Y781050D02*
G54D10*
D03*
X98425Y952500D02*
G54D13*
D03*
X77475Y714375D02*
G54D17*
D03*
X168275Y669925D02*
G54D23*
D03*
X444500Y962025D02*
G54D16*
D03*
X355600Y727075D02*
G54D17*
D03*
X117475Y714375D02*
G54D17*
D03*
X563337Y781650D02*
G54D10*
D03*
X563337Y807050D02*
G54D10*
D03*
X563337Y832450D02*
G54D10*
D03*
X563337Y857850D02*
G54D10*
D03*
X33338Y882650D02*
G54D10*
D03*
X33337Y857250D02*
G54D10*
D03*
X33337Y831850D02*
G54D10*
D03*
X33337Y806450D02*
G54D10*
D03*
X33338Y781050D02*
G54D10*
D03*
X33338Y755650D02*
G54D10*
D03*
X33338Y730250D02*
G54D10*
D03*
X33338Y908050D02*
G54D10*
D03*
X98475Y971550D02*
G54D13*
D03*
X436550Y701675D02*
G54D12*
D03*
X476250Y701675D02*
G54D12*
D03*
X380525Y917449D02*
G54D22*
D03*
X380525Y898449D02*
G54D22*
D03*
M02*
