%FSLAX34Y34*%
%MOMM*%
%LNCOPPER_BOTTOM*%
G71*
G01*
%ADD10C, 1.00*%
%ADD11C, 1.90*%
%ADD12C, 2.10*%
%ADD13C, 0.30*%
%ADD14C, 0.44*%
%ADD15R, 1.60X1.60*%
%ADD16C, 0.60*%
%ADD17C, 1.00*%
%ADD18C, 1.80*%
%ADD19C, 2.20*%
%ADD20C, 2.00*%
%ADD21C, 1.40*%
%ADD22C, 1.50*%
%ADD23R, 7.00X6.00*%
%ADD24R, 2.54X1.27*%
%ADD25C, 0.80*%
%ADD26R, 1.30X1.40*%
%ADD27R, 1.40X1.30*%
%ADD28C, 1.80*%
%ADD29C, 0.50*%
%LPD*%
G54D10*
X148828Y781050D02*
X149622Y781844D01*
X263520Y806450D02*
G54D11*
D03*
X250825Y933400D02*
G54D11*
D03*
X123825Y933450D02*
G54D11*
D03*
X200025Y933450D02*
G54D11*
D03*
X225425Y933450D02*
G54D11*
D03*
X73025Y933450D02*
G54D11*
D03*
X250825Y781050D02*
G54D11*
D03*
X123825Y781050D02*
G54D11*
D03*
X200025Y781050D02*
G54D11*
D03*
X73025Y781050D02*
G54D11*
D03*
X98425Y781050D02*
G54D11*
D03*
X276225Y933450D02*
G54D11*
D03*
X149225Y781050D02*
G54D11*
D03*
X276225Y781050D02*
G54D11*
D03*
X327025Y781050D02*
G54D11*
D03*
X238517Y806053D02*
G54D11*
D03*
X33338Y755650D02*
G54D12*
D03*
X33337Y781050D02*
G54D12*
D03*
X33337Y806450D02*
G54D12*
D03*
X33337Y831850D02*
G54D12*
D03*
X33338Y857250D02*
G54D12*
D03*
X33338Y882650D02*
G54D12*
D03*
X33338Y908050D02*
G54D12*
D03*
X33338Y730250D02*
G54D12*
D03*
G54D13*
G75*
G01X522287Y954088D02*
G03X522287Y954088I-30162J0D01*
G01*
G54D14*
X503237Y943292D02*
X500570Y938847D01*
X495237Y936625D01*
X489904Y936625D01*
X484570Y938847D01*
X481904Y943292D01*
X481904Y947736D01*
X484570Y952180D01*
X489904Y954403D01*
X495237Y954403D01*
X500570Y956625D01*
X503237Y961070D01*
X503237Y965514D01*
X500570Y969958D01*
X495237Y972180D01*
X489904Y972180D01*
X484570Y969958D01*
X481904Y965514D01*
X374650Y701675D02*
G54D15*
D03*
X374650Y673675D02*
G54D15*
D03*
G54D16*
X32544Y831975D02*
X66675Y831850D01*
X66675Y831850D02*
G54D17*
D03*
X117475Y714375D02*
G54D18*
D03*
X77475Y714375D02*
G54D18*
D03*
X406400Y666750D02*
G54D18*
D03*
X406400Y706750D02*
G54D18*
D03*
X219075Y669925D02*
G54D19*
D03*
X193675Y669925D02*
G54D19*
D03*
X168275Y669925D02*
G54D19*
D03*
X501650Y701675D02*
G54D20*
D03*
X501650Y676275D02*
G54D20*
D03*
X73025Y933450D02*
G54D21*
D03*
X123825Y933450D02*
G54D21*
D03*
X33337Y806450D02*
G54D22*
D03*
X330200Y669925D02*
G54D19*
D03*
X304800Y669925D02*
G54D19*
D03*
X279400Y669925D02*
G54D19*
D03*
X133350Y882650D02*
G54D23*
D03*
X193650Y860350D02*
G54D24*
D03*
X193650Y904850D02*
G54D24*
D03*
X295275Y727075D02*
G54D12*
D03*
X320675Y727075D02*
G54D12*
D03*
X219075Y730250D02*
G54D12*
D03*
X193675Y730250D02*
G54D12*
D03*
G54D25*
X32544Y781175D02*
X73025Y781050D01*
G54D25*
X34925Y755650D02*
X66675Y755650D01*
G54D25*
X342900Y793750D02*
X342900Y774700D01*
G54D25*
X292096Y933448D02*
X292096Y889004D01*
X342900Y838200D01*
X342900Y793750D01*
X250825Y933400D02*
G54D21*
D03*
X276225Y781050D02*
G54D21*
D03*
X408781Y742950D02*
G54D21*
D03*
X238125Y882650D02*
G54D26*
D03*
X219125Y882650D02*
G54D26*
D03*
X238075Y904875D02*
G54D26*
D03*
X219075Y904875D02*
G54D26*
D03*
G54D16*
X438150Y746125D02*
X438150Y762000D01*
X444500Y768350D01*
X408781Y844550D02*
G54D21*
D03*
X408781Y819150D02*
G54D21*
D03*
X408781Y793750D02*
G54D21*
D03*
X263520Y806450D02*
G54D21*
D03*
X238517Y806053D02*
G54D21*
D03*
G54D10*
X408781Y768350D02*
X355600Y768350D01*
X342900Y781050D01*
X444518Y847756D02*
G54D27*
D03*
X444518Y866756D02*
G54D27*
D03*
X444500Y920750D02*
G54D27*
D03*
X444500Y901750D02*
G54D27*
D03*
G54D16*
X444500Y955675D02*
X444500Y920750D01*
G54D16*
X408781Y869950D02*
X444550Y869950D01*
X444550Y901700D01*
X444500Y901750D01*
G54D16*
X238125Y904875D02*
X238125Y920750D01*
X225425Y933450D01*
G54D16*
X219075Y904875D02*
X219075Y882650D01*
G54D16*
X196850Y904875D02*
X219075Y904875D01*
G54D16*
X238125Y879475D02*
X238125Y857250D01*
G54D16*
X238125Y876300D02*
X238125Y866775D01*
X247650Y857250D01*
G54D16*
X238125Y876300D02*
X238125Y866775D01*
X231775Y860425D01*
G54D10*
X215900Y860425D02*
X320675Y860425D01*
X342900Y838200D01*
G54D10*
X292100Y933450D02*
X292100Y882650D01*
X269875Y860425D01*
G54D10*
X342900Y781050D02*
X314325Y781050D01*
X314325Y819150D01*
X273050Y860425D01*
G54D10*
X301625Y831850D02*
X215900Y831850D01*
X196850Y850900D01*
X196850Y860425D01*
G54D10*
X330200Y968375D02*
X346075Y952500D01*
X346075Y923925D01*
X355600Y860425D01*
X381000Y777875D01*
X390525Y768350D01*
G54D10*
X409575Y768350D02*
X327025Y768350D01*
X314325Y781050D01*
G54D10*
X438150Y768350D02*
X438150Y831850D01*
X466725Y860425D01*
G54D10*
X511175Y879475D02*
X495300Y879475D01*
X469900Y831850D01*
G36*
X482600Y879475D02*
X469900Y863600D01*
X438150Y831850D01*
X438150Y739775D01*
X527050Y739775D01*
X541112Y753837D01*
X541112Y854675D01*
X541712Y879475D01*
X482600Y879475D01*
G37*
G54D10*
X482600Y879475D02*
X469900Y863600D01*
X438150Y831850D01*
X438150Y739775D01*
X527050Y739775D01*
X541112Y753837D01*
X541112Y854675D01*
X541712Y879475D01*
X482600Y879475D01*
G54D10*
X390525Y768350D02*
X327025Y768350D01*
X314325Y781050D01*
X314325Y819150D01*
X273050Y860425D01*
X273050Y863600D01*
X292100Y882650D01*
X292096Y933448D01*
X292096Y949329D01*
X273000Y968425D01*
X336500Y968425D01*
X358825Y946150D01*
X358775Y869950D01*
X381000Y777875D01*
X390525Y768350D01*
X327025Y768350D01*
G36*
X327025Y768350D02*
X314325Y781050D01*
X314325Y819150D01*
X311150Y819150D01*
X269875Y860425D01*
X292100Y882650D01*
X292100Y949325D01*
X273000Y968425D01*
X330150Y962075D01*
X349250Y942975D01*
X352425Y898525D01*
X381000Y777875D01*
X390525Y768350D01*
X327025Y768350D01*
G37*
G54D10*
X327025Y768350D02*
X314325Y781050D01*
X314325Y819150D01*
X311150Y819150D01*
X269875Y860425D01*
X292100Y882650D01*
X292100Y949325D01*
X273000Y968425D01*
X330150Y962075D01*
X349250Y942975D01*
X352425Y898525D01*
X381000Y777875D01*
X390525Y768350D01*
X327025Y768350D01*
G36*
X292100Y831850D02*
X215900Y831850D01*
X196850Y850900D01*
X196850Y860425D01*
X292100Y860425D01*
X304800Y847725D01*
X304800Y844550D01*
X292100Y831850D01*
G37*
G54D10*
X292100Y831850D02*
X215900Y831850D01*
X196850Y850900D01*
X196850Y860425D01*
X292100Y860425D01*
X304800Y847725D01*
X304800Y844550D01*
X292100Y831850D01*
G54D10*
X285750Y835025D02*
X311150Y809625D01*
X311150Y796925D01*
X317500Y790575D01*
G54D10*
X158750Y841375D02*
X139700Y860425D01*
G54D25*
X438150Y739775D02*
X438150Y762000D01*
X431800Y768350D01*
G54D25*
X422275Y768350D02*
X425450Y768350D01*
X438150Y781050D01*
G54D25*
X425450Y768350D02*
X438150Y755650D01*
X408781Y844550D02*
G54D11*
D03*
X408781Y869950D02*
G54D11*
D03*
X408781Y895350D02*
G54D11*
D03*
X408781Y920750D02*
G54D11*
D03*
X408781Y742950D02*
G54D11*
D03*
X408781Y768350D02*
G54D11*
D03*
X408781Y793750D02*
G54D11*
D03*
X408781Y819150D02*
G54D11*
D03*
X200025Y781050D02*
G54D21*
D03*
X209550Y971550D02*
G54D20*
D03*
X234950Y971550D02*
G54D20*
D03*
G54D25*
X234950Y971550D02*
X327025Y971550D01*
X352425Y946150D01*
G54D16*
X98425Y781050D02*
X98425Y819150D01*
X60325Y857250D01*
X33338Y857250D01*
G54D16*
X33338Y882650D02*
X53975Y882650D01*
X114300Y819150D01*
X200025Y781050D02*
G54D11*
D03*
G54D25*
X33338Y908050D02*
X73025Y908050D01*
X98425Y933450D01*
X98475Y971550D01*
X98425Y952500D02*
G54D17*
D03*
G54D16*
X120650Y819150D02*
X114300Y819150D01*
X107950Y825500D01*
G54D16*
X149225Y781050D02*
X149225Y803275D01*
X133350Y819150D01*
X120650Y819150D01*
G54D25*
X408781Y768350D02*
X444500Y768350D01*
G54D10*
X384175Y654050D02*
X393700Y654050D01*
X406400Y666750D01*
G54D10*
X279400Y669925D02*
X219075Y669925D01*
G54D10*
X323850Y650875D02*
X390525Y650875D01*
X406400Y666750D01*
G54D10*
X330200Y650875D02*
X196850Y650875D01*
X193675Y654050D01*
X193675Y669925D01*
G54D10*
X304800Y669925D02*
X304800Y657225D01*
X311150Y650875D01*
G54D10*
X304800Y666750D02*
X304800Y657225D01*
X298450Y650875D01*
G54D10*
X193675Y669925D02*
X193675Y657225D01*
X200025Y650875D01*
G54D10*
X193675Y669925D02*
X193675Y657225D01*
X187325Y650875D01*
X130175Y650875D01*
G54D10*
X279400Y669925D02*
X279400Y711200D01*
X295275Y727075D01*
G54D10*
X168275Y669925D02*
X168275Y701675D01*
X193675Y727075D01*
G54D10*
X320675Y727075D02*
X320675Y746125D01*
X311150Y755650D01*
G54D10*
X190500Y755650D02*
X311150Y755650D01*
X320675Y746125D01*
X320675Y727075D01*
G54D10*
X219075Y727075D02*
X219075Y746125D01*
X209550Y755650D01*
G54D10*
X219075Y727075D02*
X219075Y746125D01*
X228600Y755650D01*
G54D10*
X406400Y704850D02*
X365125Y704850D01*
X330200Y669925D01*
G54D10*
X219075Y669925D02*
X260350Y669925D01*
X279400Y688975D01*
G54D10*
X222250Y669925D02*
X250825Y669925D01*
X279400Y698500D01*
G54D10*
X174625Y781050D02*
X174625Y773112D01*
G54D10*
X174625Y781050D02*
X174625Y825500D01*
X152400Y847725D01*
G54D10*
X161925Y860425D02*
X161925Y838200D01*
X168275Y831850D01*
G54D10*
X155575Y857250D02*
X155575Y850900D01*
X152400Y847725D01*
G54D10*
X174625Y787400D02*
X174625Y771525D01*
X190500Y755650D01*
G54D25*
X33338Y755650D02*
X88900Y755650D01*
X117475Y727075D01*
X117475Y714375D01*
X117475Y663575D01*
G54D25*
X117475Y714375D02*
X117475Y663575D01*
X130175Y650875D01*
X77475Y714375D02*
G54D21*
D03*
X168275Y669925D02*
G54D28*
D03*
G54D25*
X33338Y730250D02*
X61600Y730250D01*
X77475Y714375D01*
X444500Y962025D02*
G54D20*
D03*
G54D10*
X355600Y727075D02*
X355600Y781050D01*
G54D10*
X355600Y727075D02*
X355600Y755650D01*
X339725Y771525D01*
G54D10*
X355600Y727075D02*
X355600Y755650D01*
X371475Y771525D01*
X355600Y727075D02*
G54D21*
D03*
X117475Y714375D02*
G54D21*
D03*
G54D25*
X406400Y666750D02*
X362025Y666750D01*
X349300Y654025D01*
G54D25*
X396875Y660400D02*
X361950Y660400D01*
X355600Y654050D01*
X384175Y654050D01*
G54D25*
X406400Y666750D02*
X425450Y666750D01*
X434975Y676275D01*
X501650Y676275D01*
X563337Y781650D02*
G54D11*
D03*
X563337Y807050D02*
G54D11*
D03*
X563337Y832450D02*
G54D11*
D03*
X563337Y857850D02*
G54D11*
D03*
X33338Y882650D02*
G54D11*
D03*
X33337Y857250D02*
G54D11*
D03*
X33337Y831850D02*
G54D11*
D03*
X33337Y806450D02*
G54D11*
D03*
X33338Y781050D02*
G54D11*
D03*
X33338Y755650D02*
G54D11*
D03*
X33338Y730250D02*
G54D11*
D03*
X33338Y908050D02*
G54D11*
D03*
G54D25*
X438150Y825500D02*
X438150Y841388D01*
X444518Y847756D01*
G54D16*
X408781Y869950D02*
X434975Y869950D01*
X444500Y879475D01*
X98475Y971550D02*
G54D17*
D03*
X436550Y701675D02*
G54D15*
D03*
X476250Y701675D02*
G54D15*
D03*
G54D10*
X501650Y701675D02*
X473075Y701675D01*
G54D10*
X406400Y706750D02*
X417200Y706750D01*
X422275Y701675D01*
X436550Y701675D01*
X380525Y917449D02*
G54D27*
D03*
X380525Y898449D02*
G54D27*
D03*
G54D10*
X381000Y774700D02*
X381000Y866775D01*
X355600Y892175D01*
G54D10*
X374650Y822325D02*
X374650Y863600D01*
X355600Y882650D01*
X355600Y863600D01*
X371475Y847725D01*
X371475Y857250D01*
X365125Y863600D01*
G54D29*
X409575Y920750D02*
X393700Y920750D01*
X390525Y917575D01*
X384175Y917575D01*
G54D29*
X406400Y895350D02*
X393700Y895350D01*
X390525Y898525D01*
X381000Y898525D01*
G36*
X577850Y879475D02*
X552450Y879475D01*
X539750Y866775D01*
X479425Y866775D01*
X466725Y854075D01*
X466725Y901700D01*
X476250Y911225D01*
X511175Y911225D01*
X523875Y923925D01*
X568325Y923925D01*
X577850Y914400D01*
X577850Y879475D01*
G37*
G54D10*
X577850Y879475D02*
X552450Y879475D01*
X539750Y866775D01*
X479425Y866775D01*
X466725Y854075D01*
X466725Y901700D01*
X476250Y911225D01*
X511175Y911225D01*
X523875Y923925D01*
X568325Y923925D01*
X577850Y914400D01*
X577850Y879475D01*
M02*
